<svg version="1.1" width="60" height="60" viewBox="0 0 35 36" xmlns="http://www.w3.org/2000/svg" xmlns:xlink="http://www.w3.org/1999/xlink" xml:space="preserve">
<style>
 .icon-tada-streamer-1, .icon-tada-streamer-2 {
	 stroke-dasharray: 30;
	 stroke-dashoffset: 0;
}
.icon-tada-streamer-1 {
	 animation: streamer-1 1.5s linear infinite;
}
.icon-tada-streamer-2 {
	 animation: streamer-2 1.5s linear infinite;
}
.icon-tada-star-1 {
	 fill-opacity: 0;
	 transform-origin: 3.5px 3.5px;
	 animation: star 1s ease alternate infinite;
}
.icon-tada-star-2 {
	 fill-opacity: 0;
	 transform-origin: 3.5px 3.5px;
	 animation: star 1.5s ease alternate infinite;
}
.icon-tada-star-3 {
	 fill-opacity: 0;
	 transform-origin: 3.5px 3.5px;
	 animation: star-alternate 1.2s ease alternate infinite;
}
.icon-tada-circle-1 {
	 fill-opacity: 0;
	 animation: appear 2.5s linear alternate infinite;
}
.icon-tada-circle-2 {
	 fill-opacity: 0;
	 animation: appear 3s linear alternate infinite;
}
.icon-tada-circle-3 {
	 fill-opacity: 0;
	 animation: appear 3.25s linear alternate infinite;
}
.icon-tada-circle-4 {
	 fill-opacity: 0;
	 animation: appear 2s linear alternate infinite;
}
 .icon-tada-cone {
	 fill: #ff7f50;
}
 .icon-tada-star-1, .icon-tada-star-2, .icon-tada-star-3, .icon-tada-circle-1, .icon-tada-circle-2, .icon-tada-circle-3, .icon-tada-circle-4, .icon-tada-streamer-1, .icon-tada-streamer-2 {
	 stroke: #ff7f50;
}
 @keyframes streamer-1 {
	 0% {
		 opacity: 0;
		 stroke-dashoffset: -30;
		 transform: translate(-4px, 5px);
	}
	 25% {
		 opacity: 1;
	}
	 75% {
		 opacity: 0;
	}
	 100% {
		 opacity: 0;
		 stroke-dashoffset: 0;
		 transform: translate(5px, -10px) scale(1.5);
	}
}
 @keyframes streamer-2 {
	 0% {
		 opacity: 0;
		 stroke-dashoffset: -30;
		 transform: translate(-2px, 3px);
	}
	 25% {
		 opacity: 1;
	}
	 75% {
		 opacity: 0;
	}
	 100% {
		 opacity: 0;
		 stroke-dashoffset: 0;
		 transform: translate(5px, -10px) scale(2);
	}
}
 @keyframes star {
	 0% {
		 transform: rotate(0) scale(0);
	}
	 100% {
		 transform: rotate(360deg) scale(1.35);
	}
}
 @keyframes star-alternate {
	 0% {
		 transform: rotate(0) scale(0);
	}
	 100% {
		 transform: rotate(180deg) scale(0.8);
	}
}
 @keyframes appear {
	 0% {
		 opacity: 0;
		 transform: scale(0);
	}
	 66% {
		 opacity: 1;
		 transform: scale(1.2);
	}
	 100% {
		 transform: scale(1);
		 opacity: 0;
	}
}
 
</style>

<g fill="none" fill-rule="evenodd" class="icon-tada-group">
<path class="icon-tada-cone" fill="#48b79e" fill-rule="nonzero" d="M8.94494706,15.0388927 C8.64083425,14.9217515 8.33672145,15.0779398 8.22267914,15.3903165 L1.0380141,34.1329188 C0.961985899,34.3672014 1,34.6014839 1.1520564,34.7576722 C1.26609871,34.8748135 1.41815511,34.9138606 1.57021151,34.9138606 C1.64623971,34.9138606 1.72226791,34.9138606 1.76028202,34.8748135 L20.0450645,27.4949139 C20.3491773,27.3777726 20.4632196,27.0653959 20.3871914,26.7530192 C18.4864863,21.2473798 14.3429494,16.9522001 8.94494706,15.0388927 Z M6.05279997,24.2819077 L6.81001031,22.3033277 C8.44698986,23.0218429 9.91925036,23.9784403 11.2286349,25.1739652 C12.3460265,26.1941921 13.3092536,27.3559567 14.1189559,28.6603659 L11.7130112,29.6318516 C10.9230151,28.4457837 10.005832,27.3757931 8.96190005,26.422638 C8.0644488,25.6032261 7.09458263,24.8895731 6.05279997,24.2819077 Z M5.69391711,25.2196635 C6.63120276,25.7773357 7.50546236,26.4266172 8.31713495,27.1677095 C9.24616803,28.015957 10.0686309,28.9620461 10.7848912,30.0066131 L2.59659223,33.31293 L5.69391711,25.2196635 Z M7.16521259,21.3751891 L9.09700346,16.3274467 C13.7347238,18.1626598 17.3460633,21.8721332 19.1327261,26.6358779 L15.0383089,28.2891444 C14.1602457,26.8405963 13.1050363,25.553431 11.8734,24.4288936 C10.4783573,23.1551591 8.90833747,22.1369714 7.16521259,21.3751891 Z"></path></g>

<g class="icon-tada-circle-4-group" transform="translate(23 24)"><path class="icon-tada-circle-4" stroke="#48b79e" d="M2,3.5 C2.40444642,3.5 2.78879974,3.34045711 3.06462843,3.06462843 C3.34045711,2.78879974 3.5,2.40444642 3.5,2 C3.5,1.59555358 3.34045711,1.21120026 3.06462843,0.935371572 C2.78879974,0.659542889 2.40444642,0.5 2,0.5 C1.59555358,0.5 1.21120026,0.659542889 0.935371572,0.935371572 C0.659542889,1.21120026 0.5,1.59555358 0.5,2 C0.5,2.40444642 0.659542889,2.78879974 0.918154579,3.04821178 C1.24859181,3.34860926 1.60642446,3.5 2,3.5 Z"></path></g>

<g class="icon-tada-circle-3-group" transform="translate(16 30)"><path class="icon-tada-circle-3" stroke="#48b79e" d="M2,3.5 C2.40444642,3.5 2.78879974,3.34045711 3.06462843,3.06462843 C3.34045711,2.78879974 3.5,2.40444642 3.5,2 C3.5,1.59555358 3.34045711,1.21120026 3.06462843,0.935371572 C2.78879974,0.659542889 2.40444642,0.5 2,0.5 C1.59555358,0.5 1.21120026,0.659542889 0.935371572,0.935371572 C0.659542889,1.21120026 0.5,1.59555358 0.5,2 C0.5,2.40444642 0.659542889,2.78879974 0.918154579,3.04821178 C1.24859181,3.34860926 1.60642446,3.5 2,3.5 Z"></path></g>

<g class="icon-tada-star-3-group" transform="translate(28 5)"><path class="icon-tada-star-3" stroke="#48b79e" d="M1.99612448,6.06427086 L3.5,5.23294892 L5.00387552,6.06427086 L4.71589672,4.29881822 L5.96258338,3.02106118 L4.24230185,2.75822555 L3.5,1.17675504 L2.75769815,2.75822555 L1.03741662,3.02106118 L2.28410328,4.29881822 L1.99612448,6.06427086 Z"></path></g>

<g class="icon-tada-star-2-group" transform="translate(27 28)"><path class="icon-tada-star-2" stroke="#48b79e" d="M0.929720978,4.90613521 L2.71157466,4.6682357 L3.97539873,5.94531893 L4.24282924,4.24476095 L5.82416832,3.54990026 L4.24630299,2.7600272 L3.98905848,1.02167389 L2.70173944,2.23628174 L0.957799547,1.89941809 L1.7739737,3.41276995 L0.929720978,4.90613521 Z"></path></g>

<g class="icon-tada-circle-2-group" transform="translate(25 1)"><path class="icon-tada-circle-2" stroke="#48b79e" d="M2,3.5 C2.40444642,3.5 2.78879974,3.34045711 3.06462843,3.06462843 C3.34045711,2.78879974 3.5,2.40444642 3.5,2 C3.5,1.59555358 3.34045711,1.21120026 3.06462843,0.935371572 C2.78879974,0.659542889 2.40444642,0.5 2,0.5 C1.59555358,0.5 1.21120026,0.659542889 0.935371572,0.935371572 C0.659542889,1.21120026 0.5,1.59555358 0.5,2 C0.5,2.40444642 0.659542889,2.78879974 0.918154579,3.04821178 C1.24859181,3.34860926 1.60642446,3.5 2,3.5 Z"></path></g>

<g class="icon-tada-circle-1-group" transform="translate(9 6)"><path class="icon-tada-circle-1" stroke="#48b79e" d="M3.04821178,3.08184542 L3.06462843,3.06462843 C3.34045711,2.78879974 3.5,2.40444642 3.5,2 C3.5,1.59555358 3.34045711,1.21120026 3.06462843,0.935371572 C2.78879974,0.659542889 2.40444642,0.5 2,0.5 C1.59555358,0.5 1.21120026,0.659542889 0.935371572,0.935371572 C0.659542889,1.21120026 0.5,1.59555358 0.5,2 C0.5,2.40444642 0.659542889,2.78879974 0.935371572,3.06462843 C1.21120026,3.34045711 1.59555358,3.5 2,3.5 C2.43611924,3.5 2.79866086,3.35635143 3.04821178,3.08184542 Z"></path></g>

<g class="icon-tada-star-1-group" transform="translate(0 8)"><path class="icon-tada-star-1" stroke="#48b79e" d="M3.13824091,5.92606082 L4.2860987,4.60804576 L6.02775465,4.77809884 L5.10841058,3.33206726 L5.81397301,1.77107867 L4.10839682,2.17647915 L2.78529775,1.02856219 L2.65349541,2.74651458 L1.15240734,3.59859856 L2.76116306,4.2393315 L3.13824091,5.92606082 Z"></path></g>

<g class="icon-tada-streamer-2-group" transform="translate(20 13)"><path class="icon-tada-streamer-2" stroke="#48b79e" d="M0.600942281,8.65895953 C0.632692846,8.66273824 0.655544983,8.69165939 0.651714329,8.72429913 C0.647809457,8.75757125 0.617790179,8.78119833 0.585409229,8.7773446 C3.18587819,9.08683268 4.34427947,8.56002729 3.72837616,6.97784654 C3.53677145,6.48563731 3.6071016,6.25918623 3.88482356,6.17301672 C4.11108832,6.10281297 4.37110339,6.11155263 5.10484322,6.22608608 L5.19041015,6.23949458 L5.19043604,6.23949864 L5.27537894,6.25281733 C5.94714896,6.35780598 6.27043515,6.38206111 6.55650927,6.33247789 C6.96936541,6.26092044 7.15783676,6.01452949 7.12109538,5.59611842 C7.01925736,4.43638654 7.98918796,3.70190516 10.1901795,3.42896833 C10.1583573,3.43291449 10.1294747,3.41048022 10.1254002,3.37823787 C10.1212116,3.34509301 10.1448512,3.31471675 10.1775749,3.31065881 C8.0045964,3.58012185 6.89006339,4.31484317 7.00365486,5.60842342 C7.03526694,5.96842184 6.88836096,6.15432754 6.53829979,6.21500119 C6.27259131,6.26105457 5.99007541,6.24362362 5.29536656,6.13505 L5.20927211,6.12155081 L5.20924687,6.12154685 L5.12484121,6.10832033 C4.43147614,6.00008912 4.10846898,5.9794696 3.851793,6.05910912 C3.79496231,6.0573755 3.79496231,6.0573755 3.53308497,6.32766481 C3.45780967,6.48227355 3.46720077,6.58561263 3.50531009,6.71848235 C3.52103552,6.77330975 3.49882774,6.71531267 3.61858028,7.0229424 C4.15626938,8.40420034 3.24677239,8.97384615 0.600942281,8.65895953 Z"></path></g>

<g class="icon-tada-streamer-1-group" transform="translate(15 5)"><path class="icon-tada-streamer-1" stroke="#48b79e" d="M0.421443884,9.50344108 C0.451449344,9.49239349 0.484940675,9.50778777 0.496345669,9.53860907 C0.507971631,9.57002752 0.491950729,9.60470787 0.461349532,9.61597481 C2.91888899,8.71114251 3.71186744,7.71585229 2.44479856,6.58573318 C2.05061918,6.23415826 2.01047717,6.00045964 2.21880911,5.79759892 C2.38854065,5.63232487 2.6241835,5.52206759 3.32994757,5.29100673 L3.41229865,5.26409969 L3.41231156,5.26409547 L3.49403175,5.23740286 C4.14024707,5.02597122 4.43930877,4.90081384 4.67169237,4.72675993 C5.00706347,4.47556901 5.06313353,4.17046887 4.84044207,3.81434211 C4.22319647,2.82724694 4.7539634,1.73247995 6.59115052,0.490062191 C6.56458823,0.508025228 6.52866865,0.501148604 6.51040054,0.474270242 C6.49162108,0.44663951 6.49889359,0.408841905 6.52620835,0.390370004 C4.71240395,1.61697494 4.05290427,2.77760383 4.74138816,3.87862282 C4.93299058,4.18503219 4.88649582,4.4173693 4.60213429,4.63035436 C4.3862941,4.79201735 4.1266571,4.90474579 3.4583756,5.12339721 L3.37554718,5.15045187 L3.37553459,5.15045598 L3.29430138,5.17699779 C2.62737264,5.39534422 2.33021009,5.52361428 2.1376657,5.71110206 C2.08624213,5.73535799 2.08624213,5.73535799 1.97561649,6.09507736 C1.97873661,6.26700903 2.0340191,6.35482135 2.12829634,6.45590787 C2.16719893,6.49762024 2.12108153,6.45602659 2.3674428,6.67576017 C3.47360527,7.66236426 2.9218513,8.58282538 0.421443884,9.50344108 Z"></path></g>

</svg>
